HIERARCHY
ROOT Hips
{
  OFFSET 265.287 66.7526 -254.649
  CHANNELS 6 Xposition Yposition Zposition Zrotation Xrotation Yrotation
  JOINT LeftUpLeg
  {
    OFFSET 8.64259 1.95398 -2.38835
    CHANNELS 3 Zrotation Xrotation Yrotation
    JOINT LeftLeg
    {
      OFFSET 43.7702 0 0
      CHANNELS 3 Zrotation Xrotation Yrotation
      JOINT LeftFoot
      {
        OFFSET 40.6238 0 0
        CHANNELS 3 Zrotation Xrotation Yrotation
        JOINT LeftToeBase
        {
          OFFSET 12.7242 0 0
          CHANNELS 3 Zrotation Xrotation Yrotation
          End Site
          {
            OFFSET 0 0 0
          }
        }
      }
    }
  }
  JOINT RightUpLeg
  {
    OFFSET -8.2249 1.95398 -2.59336
    CHANNELS 3 Zrotation Xrotation Yrotation
    JOINT RightLeg
    {
      OFFSET 43.5653 0 0
      CHANNELS 3 Zrotation Xrotation Yrotation
      JOINT RightFoot
      {
        OFFSET 40.6238 0 0
        CHANNELS 3 Zrotation Xrotation Yrotation
        JOINT RightToeBase
        {
          OFFSET 12.7242 0 0
          CHANNELS 3 Zrotation Xrotation Yrotation
          End Site
          {
            OFFSET 0 0 0
          }
        }
      }
    }
  }
  JOINT Spine
  {
    OFFSET 0.165834 0.87714 6.61349
    CHANNELS 3 Zrotation Xrotation Yrotation
    JOINT Spine1
    {
      OFFSET 7.38963 1.71661e-005 0
      CHANNELS 3 Zrotation Xrotation Yrotation
      JOINT Spine2
      {
        OFFSET 11.9445 1.14441e-005 0
        CHANNELS 3 Zrotation Xrotation Yrotation
        JOINT Spine3
        {
          OFFSET 14.7254 4.19617e-005 0
          CHANNELS 3 Zrotation Xrotation Yrotation
          JOINT Spine4
          {
            OFFSET 10.9679 0 0
            CHANNELS 3 Zrotation Xrotation Yrotation
            JOINT RightShoulder
            {
              OFFSET 2.46616 -1.6653 3.69651
              CHANNELS 3 Zrotation Xrotation Yrotation
              JOINT RightArm
              {
                OFFSET 13.0012 0 0
                CHANNELS 3 Zrotation Xrotation Yrotation
                JOINT RightForeArm
                {
                  OFFSET 28.7848 1.52588e-005 0
                  CHANNELS 3 Zrotation Xrotation Yrotation
                  JOINT RightHand
                  {
                    OFFSET 26.5688 1.52588e-005 0
                    CHANNELS 3 Zrotation Xrotation Yrotation
                    End Site
                    {
                      OFFSET 0 0 0
                    }
                  }
                }
              }
            }
            JOINT LeftShoulder
            {
              OFFSET 2.38034 -1.29275 -3.7523
              CHANNELS 3 Zrotation Xrotation Yrotation
              JOINT LeftArm
              {
                OFFSET 16.3182 6.10351e-005 0
                CHANNELS 3 Zrotation Xrotation Yrotation
                JOINT LeftForeArm
                {
                  OFFSET 27.0901 0 0
                  CHANNELS 3 Zrotation Xrotation Yrotation
                  JOINT LeftHand
                  {
                    OFFSET 24.5451 1.52588e-005 0
                    CHANNELS 3 Zrotation Xrotation Yrotation
                    End Site
                    {
                      OFFSET 0 0 0
                    }
                  }
                }
              }
            }
            JOINT Neck
            {
              OFFSET 5.0226 -0.0266342 0
              CHANNELS 3 Zrotation Xrotation Yrotation
              JOINT Head
              {
                OFFSET 6.69364 2.86102e-005 0
                CHANNELS 3 Zrotation Xrotation Yrotation
                End Site
                {
                  OFFSET 0 0 0
                }
              }
            }
          }
        }
      }
    }
  }
}
MOTION
Frames:	12
Frame Time:	0.0416667
-55.4796 97.7478 -18.4595 111.648 -85.4916 112.533 -175.549 0.118869 87.7914 -10.738 17.5989 2.33219 62.2115 3.25698 12.2525 31.2406 -0.416568 -3.79212 178.12 4.6642 92.3973 -18.2576 -2.41555 -1.13831 63.6056 3.09344 16.9851 24.3235 0.566257 0.554341 -0.0402656 6.94693 -90.1872 12.9796 -0.169797 -0.353708 1.30863 -0.185197 -0.345889 -21.2262 -0.0556466 -0.397024 -1.21351 -0.0556414 -0.397023 101.226 -54.3796 -83.5575 29.4941 -0.259921 -6.46385 -1.12754 -15.3471 -12.0127 -14.0375 -1.09268 3.94671 -84.2015 -48.0688 86.9989 -28.0406 17.2835 -18.2543 -0.67865 25.9917 -3.40798 4.24343 -0.00207206 -2.83965 4.19337 0.70665 -4.72454 -11.0694 1.10643 6.34681 
-55.5326 97.7294 -18.4457 111.82 -85.5025 112.559 -175.746 0.0668778 87.5671 -10.7237 17.8438 2.41701 62.0389 3.26375 12.8168 31.2929 -0.36181 -4.5403 178.184 4.6228 92.3183 -18.1006 -2.57918 -1.24004 62.9138 3.45503 17.7887 26.0978 0.697287 -2.16171 -0.0420552 6.9637 -90.1936 12.9461 -0.176343 -0.365706 1.27509 -0.192265 -0.357589 -21.2597 -0.058277 -0.397024 -1.24702 -0.05828 -0.397023 101.138 -54.0728 -83.6929 29.5556 -0.484139 -6.44519 -1.00084 -14.2583 -12.0372 -13.6566 -0.963512 3.0918 -84.4211 -48.6679 86.7325 -28.2625 16.1504 -18.2432 -0.335067 26.9035 -2.8751 4.19389 -0.0489388 -3.64319 5.0455 0.897553 -3.88662 -11.8028 1.18877 5.59942 
-55.5757 97.7165 -18.3852 110.848 -85.4766 111.614 -175.453 0.801197 87.6669 -11.7627 18.6304 2.10145 61.1843 2.91772 14.4588 32.4128 -0.888401 -3.00129 178.164 4.6701 92.4148 -18.2455 -3.65774 -1.16035 63.3182 2.96817 16.1923 25.4195 0.56415 -0.500843 -0.0491583 6.98097 -90.1893 12.9115 -0.188361 -0.355819 1.24053 -0.20384 -0.347194 -21.2943 -0.0727178 -0.397024 -1.28162 -0.0727202 -0.397023 101.215 -54.1063 -83.5775 29.5758 -0.690469 -6.61653 -0.803036 -13.6459 -11.9677 -14.329 -0.903767 2.18735 -84.3428 -48.4789 86.8309 -28.9713 15.2427 -18.6896 -0.251855 28.0478 -1.85947 4.4217 -0.070372 -4.03048 6.18213 0.868476 -4.64716 -13.1104 1.20069 6.56186 
-55.6212 97.6916 -18.3259 109.61 -85.4612 110.404 -175.466 0.744313 87.6797 -11.607 18.4576 2.1317 61.508 3.1036 14.4042 31.3344 -0.465898 -3.60524 178.278 4.67039 92.4944 -18.0953 -3.16649 -1.23516 63.1025 3.16861 16.7904 25.7869 0.710993 -1.94448 -0.0640703 6.98276 -90.184 12.9079 -0.215368 -0.341837 1.23695 -0.230207 -0.332022 -21.2979 -0.102683 -0.390579 -1.28525 -0.102683 -0.390576 101.175 -54.1642 -83.6363 29.6313 -0.829007 -6.64133 -0.677911 -13.4438 -11.9382 -14.6951 -0.951756 2.38637 -84.202 -48.3843 87.0365 -29.0408 15.299 -18.6708 -0.185622 28.1997 -1.92812 4.55209 -0.071145 -4.04953 5.99732 0.842455 -4.89992 -12.8308 1.21285 6.78515 
-55.6469 97.6692 -18.2961 107.514 -85.36 108.298 -175.68 0.759402 87.5922 -11.4546 18.6549 2.31457 61.3991 3.10562 14.5696 32.7569 -0.960441 -3.55658 178.232 4.94354 92.4709 -18.4662 -2.3974 -1.18905 63.2881 3.26152 17.4808 25.6671 0.535657 -0.563734 -0.0777587 6.97324 -90.1943 12.9269 -0.247575 -0.35865 1.2559 -0.263112 -0.34741 -21.2789 -0.128344 -0.416468 -1.26628 -0.128338 -0.416472 101 -53.9845 -83.899 29.8471 -0.660856 -6.44294 -0.782216 -13.5456 -12.0097 -14.7116 -0.970002 2.52432 -84.3099 -48.7237 86.9103 -28.5846 15.4726 -18.639 -0.374257 27.8568 -1.9563 4.72941 -0.0739336 -4.10245 5.29863 0.75544 -4.91982 -11.9845 1.11544 7.27147 
-55.6994 97.6726 -18.2651 108.124 -85.2874 108.916 -175.592 0.687115 87.642 -11.5193 18.85 2.27274 61.4554 3.16225 14.7227 33.1671 -1.08869 -3.73298 178.343 4.89011 92.5692 -18.5341 -1.90649 -1.27313 63.4267 3.15381 17.7381 26.0428 0.501697 -0.727261 -0.0887978 7.00464 -90.1864 12.8641 -0.265561 -0.340635 1.1931 -0.280292 -0.328635 -21.3418 -0.150912 -0.404702 -1.32914 -0.150903 -0.404701 100.982 -54.1163 -83.9238 29.7311 -0.943531 -6.50979 -0.581475 -13.209 -11.9292 -14.9644 -0.95237 2.24938 -84.2248 -48.6434 87.0312 -28.6759 15.3251 -18.7085 -0.268159 27.7633 -1.97185 4.5661 -0.101422 -4.54844 5.47483 0.777323 -4.57729 -12.1365 1.11747 6.65293 
-55.8141 97.6369 -18.2183 109.862 -85.1461 110.631 -175.296 0.19238 87.8534 -10.9341 19.449 2.08168 61.6404 3.36729 15.121 32.6796 -0.937943 -3.57556 178.227 4.98763 92.5702 -19.1071 -1.22297 -1.15385 63.3896 3.25115 18.2266 26.71 0.45619 -1.15615 -0.0844105 7.06075 -90.1818 12.7519 -0.25452 -0.333224 1.08094 -0.268938 -0.321712 -21.454 -0.142608 -0.394318 -1.44131 -0.142609 -0.394315 101.04 -54.0037 -83.8401 30.1095 -0.700958 -6.5155 -0.796687 -13.445 -12.124 -14.9366 -0.968738 2.39459 -84.3678 -48.607 86.8073 -28.7474 15.0803 -18.923 -0.236264 27.8736 -1.7357 4.31234 -0.117974 -4.84478 6.20348 0.657625 -5.14155 -13.1144 1.02521 7.31116 
-55.9755 97.5666 -18.1767 110.977 -85.0002 111.702 -174.995 0.861126 88.0545 -12.4663 19.6863 1.88489 61.8156 3.29487 15.1339 31.9913 -0.718245 -3.30458 178.413 5.20116 92.7778 -19.9248 -1.5957 -1.26885 63.7821 2.72943 17.5325 26.1746 0.4914 -0.80881 -0.0889484 7.09702 -90.1588 12.6795 -0.252489 -0.287502 1.00853 -0.264904 -0.276116 -21.5265 -0.154411 -0.350094 -1.51382 -0.154421 -0.350103 101.054 -54.2284 -83.8135 29.8942 -0.521687 -6.36704 -1.10073 -14.1412 -12.4453 -14.2805 -0.906878 2.24022 -84.389 -48.5687 86.7702 -28.4564 15.288 -19.0582 -0.396603 27.7233 -1.72534 4.01367 -0.102419 -4.58539 5.65587 0.636573 -5.25267 -12.3163 1.06516 7.1345 
-56.2137 97.5391 -18.1565 114.06 -84.6908 114.676 -174.592 0.78097 88.3323 -12.8897 19.8764 1.61629 61.7798 3.18902 15.0296 32.6324 -0.910323 -3.64922 178.183 5.23218 92.8376 -20.8204 -2.70955 -1.00701 64.074 2.05402 15.6551 27.4518 0.27499 -0.639374 -0.132475 7.18263 -90.1142 12.5083 -0.317495 -0.191366 0.837418 -0.325604 -0.177205 -21.6978 -0.245307 -0.277932 -1.68519 -0.245302 -0.277935 101.116 -54.3033 -83.7209 29.9179 -0.669288 -6.61783 -1.20401 -14.2738 -12.4915 -13.6174 -0.821164 1.86858 -84.302 -48.2728 86.8687 -28.5678 15.2124 -19.1966 -0.377589 27.7513 -1.63539 4.7365 -0.127495 -4.96516 6.11746 0.724174 -4.8745 -12.83 1.13197 6.35636 
-56.5312 97.4473 -18.1966 116.162 -84.2803 116.777 -174.54 0.466516 88.5497 -12.9536 20.9802 1.79215 61.9728 3.44868 15.7323 34.6271 -1.57104 -4.17707 178.284 5.83313 93.0718 -22.4371 -1.23141 -1.04367 63.5776 2.334 16.6279 28.8604 0.0181893 -0.264785 -0.199068 7.27031 -90.0582 12.3332 -0.423173 -0.0683531 0.662308 -0.425773 -0.0496689 -21.8733 -0.383077 -0.192378 -1.86067 -0.383072 -0.192376 101.145 -54.5871 -83.6727 29.7904 -1.27248 -6.62576 -0.804304 -13.4435 -12.9117 -14.8569 -0.975009 2.49095 -84.4032 -47.9083 86.6678 -28.491 15.4623 -18.9985 -0.201957 27.9244 -2.18157 4.0444 -0.101858 -4.57364 5.86735 0.736569 -5.38659 -12.3375 1.24896 6.48757 
-57.0082 97.2867 -18.3145 116.786 -84.2524 117.658 -173.777 1.17605 89.3245 -14.2735 21.2698 1.50002 62.8062 3.73775 15.1143 32.7344 -1.05837 -2.15636 178.112 6.66082 93.3514 -23.8932 -0.0739146 -0.650528 63.5052 2.36259 18.3338 28.6779 0.0619245 -0.414391 -0.245018 7.35756 -90.0186 12.1589 -0.495804 0.0177657 0.488021 -0.494542 0.0395684 -22.0478 -0.478223 -0.132066 -2.0352 -0.478222 -0.132071 101.376 -54.7714 -83.3297 29.8283 -1.45857 -6.87708 -0.929227 -13.3935 -13.5317 -15.0457 -0.948197 2.17573 -84.3586 -47.4015 86.675 -28.5161 15.4656 -19.2131 -0.338043 26.8049 -1.8876 4.82843 -0.149789 -5.32858 5.77216 0.427033 -6.58128 -11.565 1.11848 7.78023 
-57.5563 97.0852 -18.4266 118.736 -84.2566 119.643 -173.625 2.21896 89.8051 -16.4511 20.961 1.65 63.4585 3.85947 14.4635 33.7448 -1.34584 -2.89439 177.277 7.49136 93.2093 -25.6531 -0.891042 0.184164 63.5711 1.95069 18.2502 28.9976 -0.0313357 0.0418221 -0.30923 7.47157 -89.9258 11.9315 -0.579856 0.210675 0.260611 -0.570015 0.235982 -22.2756 -0.616361 0.0266689 -2.26293 -0.616367 0.0266454 101.452 -55.0979 -83.2146 29.693 -1.59609 -7.0443 -1.25004 -14.1341 -14.5523 -15.3906 -1.05793 2.84881 -84.4233 -47.0623 86.5316 -28.4412 15.2794 -19.3042 -0.224761 26.9486 -1.8831 5.41754 -0.129588 -4.94317 5.79568 0.210344 -7.71727 -11.0502 1.09827 8.65376 
